<svg width="27" height="19" viewBox="0 0 27 19" fill="none" xmlns="http://www.w3.org/2000/svg">
<path d="M2 -2.32458e-06C0.89543 -2.32458e-06 0 0.895428 0 2H2V-2.32458e-06ZM25 -2.32458e-06H2V2H25V-2.32458e-06ZM27 2C27 0.895428 26.1046 -2.32458e-06 25 -2.32458e-06V2H27ZM25 4C26.1046 4 27 3.10457 27 2H25V2V4ZM2 4H25V2H2V4ZM0 2C0 3.10457 0.895431 4 2 4V2V2H0ZM2 7.38461C0.89543 7.38461 0 8.28004 0 9.38461H2V7.38461ZM25 7.38461H2V9.38461H25V7.38461ZM27 9.38461C27 8.28004 26.1046 7.38461 25 7.38461V9.38461H27ZM25 11.3846C26.1046 11.3846 27 10.4892 27 9.38461H25V11.3846ZM2 11.3846H25V9.38461H2V11.3846ZM0 9.38461C0 10.4892 0.895431 11.3846 2 11.3846V9.38461H0ZM2 16.7692V14.7692C0.895431 14.7692 0 15.6647 0 16.7692H2ZM2 16.7692V16.7692H0C0 17.8738 0.895431 18.7692 2 18.7692V16.7692ZM25 16.7692H2V18.7692H25V16.7692ZM25 16.7692V16.7692V18.7692C26.1046 18.7692 27 17.8738 27 16.7692H25ZM25 16.7692H27C27 15.6647 26.1046 14.7692 25 14.7692V16.7692ZM2 16.7692H25V14.7692H2V16.7692Z" fill="black"/>
</svg>
